<svg width="27" height="27" viewBox="0 0 27 27" fill="none" xmlns="http://www.w3.org/2000/svg">
<path d="M17.7246 16.0369H16.8359L16.5209 15.7331C17.6234 14.4506 18.2871 12.7856 18.2871 10.9744C18.2871 6.93562 15.0134 3.66187 10.9746 3.66187C6.93586 3.66187 3.66211 6.93562 3.66211 10.9744C3.66211 15.0131 6.93586 18.2869 10.9746 18.2869C12.7859 18.2869 14.4509 17.6231 15.7334 16.5206L16.0371 16.8356V17.7244L21.6621 23.3381L23.3384 21.6619L17.7246 16.0369ZM10.9746 16.0369C8.17336 16.0369 5.91211 13.7756 5.91211 10.9744C5.91211 8.17312 8.17336 5.91187 10.9746 5.91187C13.7759 5.91187 16.0371 8.17312 16.0371 10.9744C16.0371 13.7756 13.7759 16.0369 10.9746 16.0369Z" fill="#5F5F5F"/>
</svg>
