<svg width="29" height="29" viewBox="0 0 29 29" fill="none" xmlns="http://www.w3.org/2000/svg">
<mask id="path-1-inside-1_302_152" fill="white">
<path d="M21.5093 10.0093C20.4704 8.38771 18.9013 7.17648 17.0694 6.58203C15.2375 5.98759 13.2562 6.04672 11.463 6.74933C9.66987 7.45195 8.1758 8.75459 7.2354 10.4353C6.29499 12.116 5.96645 14.0708 6.30573 15.9666C6.64502 17.8624 7.63115 19.5818 9.0961 20.8321C10.561 22.0823 12.4142 22.7859 14.3397 22.823C16.2653 22.86 18.1441 22.2283 19.6561 21.0354C21.1681 19.8425 22.2197 18.1623 22.6317 16.281L20.8592 15.8928C20.537 17.364 19.7146 18.678 18.5322 19.6109C17.3498 20.5438 15.8805 21.0378 14.3747 21.0088C12.8688 20.9798 11.4196 20.4296 10.274 19.4519C9.12837 18.4742 8.35719 17.1295 8.09186 15.6469C7.82652 14.1643 8.08346 12.6357 8.81888 11.3213C9.5543 10.0069 10.7227 8.98824 12.125 8.43877C13.5273 7.88931 15.0768 7.84307 16.5093 8.30794C17.9419 8.77281 19.169 9.72003 19.9815 10.9882L21.5093 10.0093Z"/>
</mask>
<path d="M21.5093 10.0093C20.4704 8.38771 18.9013 7.17648 17.0694 6.58203C15.2375 5.98759 13.2562 6.04672 11.463 6.74933C9.66987 7.45195 8.1758 8.75459 7.2354 10.4353C6.29499 12.116 5.96645 14.0708 6.30573 15.9666C6.64502 17.8624 7.63115 19.5818 9.0961 20.8321C10.561 22.0823 12.4142 22.7859 14.3397 22.823C16.2653 22.86 18.1441 22.2283 19.6561 21.0354C21.1681 19.8425 22.2197 18.1623 22.6317 16.281L20.8592 15.8928C20.537 17.364 19.7146 18.678 18.5322 19.6109C17.3498 20.5438 15.8805 21.0378 14.3747 21.0088C12.8688 20.9798 11.4196 20.4296 10.274 19.4519C9.12837 18.4742 8.35719 17.1295 8.09186 15.6469C7.82652 14.1643 8.08346 12.6357 8.81888 11.3213C9.5543 10.0069 10.7227 8.98824 12.125 8.43877C13.5273 7.88931 15.0768 7.84307 16.5093 8.30794C17.9419 8.77281 19.169 9.72003 19.9815 10.9882L21.5093 10.0093Z" fill="#CACACA" stroke="#CACACA" stroke-width="2" mask="url(#path-1-inside-1_302_152)"/>
<path d="M23.0272 14.0877L16.4122 11.0258L22.3714 6.82795L23.0272 14.0877Z" fill="#CACACA"/>
</svg>
