<svg width="75" height="75" viewBox="0 0 75 75" fill="none" xmlns="http://www.w3.org/2000/svg">
<g clip-path="url(#clip0_211_541)">
<path d="M52.7427 34.0332L28.6077 27.1101C27.6792 26.8432 26.808 27.6835 27.044 28.6208L33.1158 52.9807C33.3496 53.9203 34.5097 54.2511 35.2066 53.5806L39.4787 49.4541L50.4512 60.8191C51.1988 61.5933 52.4339 61.6153 53.2081 60.8677L59.9194 54.3857C60.6936 53.638 60.7156 52.4029 59.968 51.6288L48.9955 40.2637L53.2676 36.1372C53.9623 35.4646 53.669 34.2934 52.7405 34.0266L52.7427 34.0332Z" fill="#C6C6C6"/>
<path d="M22.0441 43.4706L16.6031 48.9116C16.1293 49.3854 16.1288 50.1532 16.602 50.6264C17.0752 51.0996 17.843 51.0991 18.3168 50.6253L23.7578 45.1843C24.2316 44.7104 24.2321 43.9427 23.7589 43.4695C23.2857 42.9963 22.518 42.9968 22.0441 43.4706Z" fill="#C6C6C6"/>
<path d="M46.0063 24.5784L51.4483 19.1383C51.9222 18.6646 51.9228 17.8968 51.4497 17.4235C50.9766 16.9502 50.2088 16.9506 49.7349 17.4243L44.293 22.8644C43.819 23.3381 43.8184 24.1059 44.2916 24.5792C44.7647 25.0525 45.5324 25.0521 46.0063 24.5784Z" fill="#C6C6C6"/>
<path d="M39.6752 19.8529L41.668 12.4207C41.8416 11.7735 41.4582 11.1083 40.8118 10.9349C40.1654 10.7616 39.5007 11.1458 39.3272 11.793L37.3343 19.2252C37.1608 19.8725 37.5441 20.5377 38.1905 20.711C38.8369 20.8843 39.5016 20.5001 39.6752 19.8529Z" fill="#C6C6C6"/>
<path d="M31.8297 18.9255L29.8395 11.4926C29.6661 10.8453 29.0016 10.4609 28.3551 10.634C27.7086 10.8071 27.3251 11.4721 27.4984 12.1194L29.4887 19.5523C29.662 20.1996 30.3265 20.584 30.973 20.4109C31.6195 20.2378 32.003 19.5728 31.8297 18.9255Z" fill="#C6C6C6"/>
<path d="M24.5787 22.0471L19.1386 16.6052C18.6649 16.1313 17.8971 16.1306 17.4238 16.6038C16.9505 17.0769 16.9509 17.8446 17.4246 18.3186L22.8647 23.7605C23.3384 24.2344 24.1062 24.235 24.5795 23.7619C25.0528 23.2888 25.0524 22.521 24.5787 22.0471Z" fill="#C6C6C6"/>
<path d="M19.8533 28.3728L12.4211 26.3799C11.7739 26.2064 11.1087 26.5897 10.9354 27.2361C10.7621 27.8825 11.1462 28.5472 11.7935 28.7207L19.2257 30.7136C19.8729 30.8871 20.5381 30.5038 20.7114 29.8574C20.8847 29.211 20.5006 28.5463 19.8533 28.3728Z" fill="#C6C6C6"/>
<path d="M18.9277 36.2162L11.4948 38.2064C10.8476 38.3798 10.4631 39.0443 10.6362 39.6908C10.8093 40.3372 11.4744 40.7208 12.1217 40.5475L19.5546 38.5572C20.2019 38.3839 20.5863 37.7194 20.4132 37.0729C20.2401 36.4264 19.575 36.0429 18.9277 36.2162Z" fill="#C6C6C6"/>
</g>
<defs>
<clipPath id="clip0_211_541">
<rect width="48.1179" height="56.7733" fill="white" transform="translate(0 34.0244) rotate(-45)"/>
</clipPath>
</defs>
</svg>
