<svg width="40" height="35" viewBox="0 0 40 35" fill="none" xmlns="http://www.w3.org/2000/svg">
<g clip-path="url(#clip0_120_268)">
<path d="M35.9766 3.0333C35.9766 1.35874 34.5985 0 32.9002 0H7.10227C5.40392 0 4.02588 1.35874 4.02588 3.0333V5.96663C4.02588 6.0916 4.0351 6.21202 4.05123 6.33245C4.03971 6.4915 4.02588 6.64827 4.02588 6.8096V16.8456H7.17832V10.3246C7.17832 10.2201 7.18984 10.1178 7.19675 10.0133C7.18523 9.93606 7.17832 9.85653 7.17832 9.77473V7.86841C7.17832 6.78006 8.26139 5.8962 9.59795 5.8962H29.8929C31.2295 5.8962 32.3125 6.77779 32.3125 7.86841V9.77473C32.3125 9.85426 32.3056 9.93378 32.2941 10.0133C32.3033 10.1156 32.3125 10.2201 32.3125 10.3246V16.8456H35.9743V6.81187C35.9743 6.65055 35.9604 6.4915 35.9489 6.33472C35.9627 6.2143 35.9743 6.09387 35.9743 5.9689V3.03558L35.9766 3.0333ZM26.7243 3.11737C26.7243 3.70586 26.2404 4.18073 25.6459 4.18073H14.3589C13.762 4.18073 13.2804 3.70358 13.2804 3.11737C13.2804 2.52889 13.7643 2.05401 14.3589 2.05401H25.6459C26.2427 2.05401 26.7243 2.53116 26.7243 3.11737Z" fill="white"/>
<path d="M35.7207 18.1226H3.77002V31.3805H7.42943C7.40869 31.5395 7.39486 31.7009 7.39486 31.8667C7.39486 33.5958 8.56781 34.9977 10.0173 34.9977C11.4668 34.9977 12.6397 33.5958 12.6397 31.8667C12.6397 31.7009 12.6259 31.5395 12.6051 31.3805H26.8925C26.8718 31.5395 26.8579 31.7009 26.8579 31.8667C26.8579 33.5958 28.0309 34.9977 29.4804 34.9977C30.9298 34.9977 32.1028 33.5958 32.1028 31.8667C32.1028 31.7009 32.0889 31.5395 32.0682 31.3805H35.7276V18.1226H35.7207ZM9.78454 27.8859C8.37884 27.8859 7.24046 26.7635 7.24046 25.3775C7.24046 23.9915 8.37884 22.8691 9.78454 22.8691C11.1902 22.8691 12.3286 23.9915 12.3286 25.3775C12.3286 26.7635 11.1902 27.8859 9.78454 27.8859ZM29.5541 27.8859C28.1484 27.8859 27.01 26.7635 27.01 25.3775C27.01 23.9915 28.1484 22.8691 29.5541 22.8691C30.9598 22.8691 32.0982 23.9915 32.0982 25.3775C32.0982 26.7635 30.9598 27.8859 29.5541 27.8859Z" fill="white"/>
<path d="M39.7441 7.2981H37.7923C37.6497 7.2981 37.5342 7.41203 37.5342 7.55258V13.9168C37.5342 14.0574 37.6497 14.1713 37.7923 14.1713H39.7441C39.8867 14.1713 40.0022 14.0574 40.0022 13.9168V7.55258C40.0022 7.41203 39.8867 7.2981 39.7441 7.2981Z" fill="white"/>
<path d="M2.20993 7.2981H0.258094C0.115553 7.2981 0 7.41203 0 7.55258V13.9168C0 14.0574 0.115553 14.1713 0.258094 14.1713H2.20993C2.35247 14.1713 2.46803 14.0574 2.46803 13.9168V7.55258C2.46803 7.41203 2.35247 7.2981 2.20993 7.2981Z" fill="white"/>
</g>
<defs>
<clipPath id="clip0_120_268">
<rect width="40" height="35" fill="white"/>
</clipPath>
</defs>
</svg>
