<svg aria-label="bookmark icon" width="20" height="31" viewBox="0 0 20 31" fill="none" xmlns="http://www.w3.org/2000/svg">
<path d="M1.45988 31C1.21537 30.9991 0.975168 30.922 0.76244 30.7761C0.542581 30.6266 0.359507 30.409 0.231958 30.1458C0.104409 29.8825 0.0369654 29.5829 0.0365308 29.2778V4.01278C0.0172895 2.97999 0.335189 1.97963 0.921334 1.2285C1.50748 0.477372 2.31465 0.035985 3.1679 0H16.8321C17.6853 0.035985 18.4925 0.477372 19.0786 1.2285C19.6648 1.97963 19.9827 2.97999 19.9635 4.01278V29.2778C19.962 29.5783 19.8955 29.8732 19.7706 30.133C19.6458 30.3928 19.4669 30.6086 19.2518 30.7589C19.0354 30.91 18.7899 30.9896 18.5401 30.9896C18.2902 30.9896 18.0448 30.91 17.8284 30.7589L9.75802 25.2306L2.17156 30.7417C1.95742 30.9025 1.71183 30.9916 1.45988 31Z" fill="#008080"/>
</svg>
