  <svg
    xmlns="http://www.w3.org/2000/svg"
    width="32" height="32"
    viewBox="0 0 42 42"
    aria-label="home icon"
  >
    <path
      d="M8.4 23.1H4.2H29.4H8.4ZM8.4 37.8V42H2.1V35.595C1.4 34.86 0.875 34.0466 0.525 33.1548C0.175 32.263 0 31.3614 0 30.45V10.5C0 7.385 1.4441 5.2059 4.3323 3.9627C7.2205 2.7195 12.2689 2.0986 19.4775 2.1C19.0225 2.73 18.6291 3.395 18.2973 4.095C17.9655 4.795 17.6764 5.5125 17.43 6.2475C13.86 6.3175 11.1041 6.5275 9.1623 6.8775C7.2205 7.2275 5.8814 7.735 5.145 8.4H16.9575C16.8525 9.1 16.8 9.8 16.8 10.5C16.8 11.2 16.8525 11.9 16.9575 12.6H4.2V18.9H19.4775C20.0725 19.74 20.7375 20.5191 21.4725 21.2373C22.2075 21.9555 23.03 22.5764 23.94 23.1H4.2V29.4C4.2 30.555 4.6116 31.5441 5.4348 32.3673C6.258 33.1905 7.2464 33.6014 8.4 33.6H25.2C26.355 33.6 27.3441 33.1891 28.1673 32.3673C28.9905 31.5455 29.4014 30.5564 29.4 29.4V25.0425C30.1 25.1475 30.8 25.2 31.5 25.2C32.2 25.2 32.9 25.1475 33.6 25.0425V30.45C33.6 31.36 33.425 32.2616 33.075 33.1548C32.725 34.048 32.2 34.8614 31.5 35.595V42H25.2V37.8H8.4ZM31.5 21C28.595 21 26.1191 19.9759 24.0723 17.9277C22.0255 15.8795 21.0014 13.4036 21 10.5C21 7.63 22.015 5.1625 24.045 3.0975C26.075 1.0325 28.56 0 31.5 0C34.405 0 36.8816 1.0234 38.9298 3.0702C40.978 5.117 42.0014 7.5936 42 10.5C42 13.405 40.9759 15.8816 38.9277 17.9298C36.8795 19.978 34.4036 21.0014 31.5 21ZM30.45 12.6H32.55V4.2H30.45V12.6ZM31.5 16.8C31.78 16.8 32.025 16.695 32.235 16.485C32.445 16.275 32.55 16.03 32.55 15.75C32.55 15.47 32.445 15.225 32.235 15.015C32.025 14.805 31.78 14.7 31.5 14.7C31.22 14.7 30.975 14.805 30.765 15.015C30.555 15.225 30.45 15.47 30.45 15.75C30.45 16.03 30.555 16.275 30.765 16.485C30.975 16.695 31.22 16.8 31.5 16.8ZM9.45 31.5C10.325 31.5 11.0691 31.1941 11.6823 30.5823C12.2955 29.9705 12.6014 29.2264 12.6 28.35C12.6 27.475 12.2941 26.7316 11.6823 26.1198C11.0705 25.508 10.3264 25.2014 9.45 25.2C8.575 25.2 7.8316 25.5066 7.2198 26.1198C6.608 26.733 6.3014 27.4764 6.3 28.35C6.3 29.225 6.6066 29.9691 7.2198 30.5823C7.833 31.1955 8.5764 31.5014 9.45 31.5ZM24.15 31.5C25.025 31.5 25.7691 31.1941 26.3823 30.5823C26.9955 29.9705 27.3014 29.2264 27.3 28.35C27.3 27.475 26.9941 26.7316 26.3823 26.1198C25.7705 25.508 25.0264 25.2014 24.15 25.2C23.275 25.2 22.5316 25.5066 21.9198 26.1198C21.308 26.733 21.0014 27.4764 21 28.35C21 29.225 21.3066 29.9691 21.9198 30.5823C22.533 31.1955 23.2764 31.5014 24.15 31.5Z"
      fill="black"
    />
  </svg>