<svg width="28" height="28" viewBox="0 0 28 28" fill="none" xmlns="http://www.w3.org/2000/svg">
<mask id="path-1-inside-1_221_617" fill="white">
<path d="M21.5093 10.0093C20.4704 8.38768 18.9013 7.17645 17.0694 6.582C15.2375 5.98756 13.2562 6.04669 11.463 6.7493C9.66987 7.45192 8.1758 8.75456 7.2354 10.4353C6.29499 12.116 5.96645 14.0708 6.30573 15.9665C6.64502 17.8623 7.63115 19.5818 9.0961 20.832C10.561 22.0823 12.4142 22.7859 14.3397 22.8229C16.2653 22.86 18.1441 22.2283 19.6561 21.0354C21.1681 19.8425 22.2197 18.1623 22.6317 16.2809L20.8592 15.8927C20.537 17.364 19.7146 18.678 18.5322 19.6109C17.3498 20.5437 15.8805 21.0378 14.3747 21.0088C12.8688 20.9798 11.4196 20.4295 10.274 19.4518C9.12837 18.4741 8.35719 17.1294 8.09186 15.6469C7.82652 14.1643 8.08346 12.6356 8.81888 11.3213C9.5543 10.0069 10.7227 8.98821 12.125 8.43874C13.5273 7.88928 15.0768 7.84304 16.5093 8.30791C17.9419 8.77278 19.169 9.72 19.9815 10.9882L21.5093 10.0093Z"/>
</mask>
<path d="M21.5093 10.0093C20.4704 8.38768 18.9013 7.17645 17.0694 6.582C15.2375 5.98756 13.2562 6.04669 11.463 6.7493C9.66987 7.45192 8.1758 8.75456 7.2354 10.4353C6.29499 12.116 5.96645 14.0708 6.30573 15.9665C6.64502 17.8623 7.63115 19.5818 9.0961 20.832C10.561 22.0823 12.4142 22.7859 14.3397 22.8229C16.2653 22.86 18.1441 22.2283 19.6561 21.0354C21.1681 19.8425 22.2197 18.1623 22.6317 16.2809L20.8592 15.8927C20.537 17.364 19.7146 18.678 18.5322 19.6109C17.3498 20.5437 15.8805 21.0378 14.3747 21.0088C12.8688 20.9798 11.4196 20.4295 10.274 19.4518C9.12837 18.4741 8.35719 17.1294 8.09186 15.6469C7.82652 14.1643 8.08346 12.6356 8.81888 11.3213C9.5543 10.0069 10.7227 8.98821 12.125 8.43874C13.5273 7.88928 15.0768 7.84304 16.5093 8.30791C17.9419 8.77278 19.169 9.72 19.9815 10.9882L21.5093 10.0093Z" fill="#CACACA" stroke="#CACACA" stroke-width="2" mask="url(#path-1-inside-1_221_617)"/>
<path d="M23.0274 14.0877L16.4123 11.0258L22.3715 6.82801L23.0274 14.0877Z" fill="#CACACA"/>
</svg>
