<svg width="32" height="32" viewBox="0 0 32 32" fill="none" xmlns="http://www.w3.org/2000/svg">
<path fill-rule="evenodd" clip-rule="evenodd" d="M19.5802 13.891C19.5802 17.0331 17.0331 19.5803 13.8909 19.5803C10.7488 19.5803 8.20163 17.0331 8.20163 13.891C8.20163 10.7488 10.7488 8.20166 13.8909 8.20166C17.0331 8.20166 19.5802 10.7488 19.5802 13.891ZM18.6611 20.2702C17.3314 21.2661 15.6801 21.856 13.8909 21.856C9.49197 21.856 5.9259 18.2899 5.9259 13.891C5.9259 9.492 9.49197 5.92593 13.8909 5.92593C18.2899 5.92593 21.856 9.492 21.856 13.891C21.856 15.68 21.2661 17.3314 20.2703 18.661L26.0742 24.465L24.465 26.0742L18.6611 20.2702Z" fill="#5F5F5F"/>
</svg>
